<svg width="408" height="175" viewBox="0 0 408 175" fill="none" xmlns="http://www.w3.org/2000/svg">
<rect x="102.5" y="1.5" width="172" height="172" stroke="black" stroke-width="3"/>
<path d="M207 53.9091H215.366V99.6548C215.366 104.378 214.253 108.595 212.027 112.306C209.822 115.994 206.707 118.907 202.682 121.043C198.656 123.157 193.933 124.214 188.513 124.214C183.092 124.214 178.369 123.157 174.344 121.043C170.318 118.907 167.192 115.994 164.965 112.306C162.761 108.595 161.659 104.378 161.659 99.6548V53.9091H170.025V98.9801C170.025 102.354 170.768 105.356 172.252 107.988C173.736 110.596 175.85 112.654 178.594 114.161C181.361 115.646 184.667 116.388 188.513 116.388C192.359 116.388 195.665 115.646 198.431 114.161C201.197 112.654 203.311 110.596 204.773 107.988C206.258 105.356 207 102.354 207 98.9801V53.9091Z" fill="black"/>
<path d="M233.077 116.182V119.023H221.316V116.182H233.077ZM224.838 138V113.17C224.838 111.92 225.132 110.879 225.719 110.045C226.306 109.212 227.069 108.587 228.006 108.17C228.944 107.754 229.933 107.545 230.975 107.545C231.799 107.545 232.471 107.612 232.992 107.744C233.513 107.877 233.901 108 234.157 108.114L233.191 111.011C233.02 110.955 232.783 110.884 232.48 110.798C232.187 110.713 231.799 110.67 231.316 110.67C230.208 110.67 229.408 110.95 228.915 111.509C228.432 112.067 228.191 112.886 228.191 113.966V138H224.838Z" fill="black"/>
<g clip-path="url(#clip0_1_142)">
<path d="M3.77823 59.1304H3.72394C3.50679 59.1304 3.34393 59.0038 3.23535 58.7504V45.5584L3.2625 32.3664C3.44346 32.1312 3.61537 32.0136 3.77823 32.0136C4.01348 32.0136 4.19444 32.1493 4.32111 32.4207V58.7504C4.17634 59.0038 4.01348 59.1304 3.83252 59.1304H3.77823Z" fill="black"/>
<path d="M8.96273 44.5134C9.0894 43.7534 9.57799 42.8757 10.4285 41.8804C11.279 40.8852 12.3286 40.3785 13.5772 40.3604C14.2106 40.3604 14.7896 40.5232 15.3144 40.849C15.8392 41.1747 16.2283 41.5819 16.4816 42.0705C17.2416 40.9304 18.1555 40.3604 19.2232 40.3604C19.8927 40.3604 20.4718 40.5594 20.9604 40.9576C21.449 41.3557 21.7023 41.8895 21.7204 42.559C21.7204 43.0838 21.5937 43.5091 21.3404 43.8348C21.087 44.1605 20.8428 44.3596 20.6075 44.432C20.3723 44.5044 20.1642 44.5406 19.9832 44.5406C19.6394 44.5406 19.3589 44.441 19.1417 44.242C18.9246 44.0429 18.816 43.7805 18.816 43.4548C18.816 42.6224 19.2684 42.0524 20.1732 41.7447C19.9741 41.5095 19.6122 41.3919 19.0874 41.3919C18.8522 41.3919 18.6803 41.41 18.5717 41.4461C17.8841 41.7357 17.3774 42.3328 17.0516 43.2376C15.9659 47.2369 15.423 49.5712 15.423 50.2408C15.423 50.7475 15.5678 51.1094 15.8573 51.3266C16.1468 51.5437 16.4635 51.6523 16.8073 51.6523C17.4769 51.6523 18.1374 51.3537 18.7889 50.7565C19.4403 50.1594 19.8837 49.4265 20.1189 48.5579C20.1732 48.3769 20.2275 48.2774 20.2818 48.2593C20.3361 48.2412 20.4808 48.2231 20.7161 48.205H20.8247C21.0961 48.205 21.2318 48.2774 21.2318 48.4222C21.2318 48.4402 21.2137 48.5398 21.1775 48.7207C20.888 49.7522 20.327 50.6661 19.4946 51.4623C18.6622 52.2585 17.694 52.6566 16.5902 52.6566C15.3235 52.6566 14.3644 52.0866 13.7129 50.9465C12.971 52.0685 12.1205 52.6295 11.1614 52.6295H10.9985C10.1118 52.6295 9.47847 52.3942 9.09845 51.9237C8.71843 51.4532 8.51938 50.9556 8.50128 50.4308C8.50128 49.8517 8.67319 49.3812 9.01702 49.0193C9.36084 48.6574 9.768 48.4764 10.2385 48.4764C11.0166 48.4764 11.4057 48.8565 11.4057 49.6165C11.4057 49.9784 11.2971 50.2951 11.08 50.5665C10.8628 50.838 10.6547 51.0189 10.4556 51.1094C10.2566 51.1999 10.139 51.2451 10.1028 51.2451L10.0213 51.2723C10.0213 51.2904 10.0756 51.3266 10.1842 51.3808C10.2928 51.4351 10.4376 51.4985 10.6185 51.5709C10.7995 51.6432 10.9714 51.6704 11.1342 51.6523C11.7857 51.6523 12.3467 51.2451 12.8172 50.4308C12.98 50.1413 13.1881 49.526 13.4415 48.585C13.6948 47.644 13.9482 46.6668 14.2015 45.6535C14.4549 44.6401 14.5996 44.0429 14.6358 43.862C14.7263 43.3734 14.7715 43.0205 14.7715 42.8033C14.7715 42.2967 14.6358 41.9347 14.3644 41.7176C14.0929 41.5004 13.7853 41.3919 13.4415 41.3919C12.7176 41.3919 12.039 41.6814 11.4057 42.2605C10.7723 42.8395 10.329 43.5815 10.0756 44.4863C10.0394 44.6491 9.9942 44.7396 9.93991 44.7577C9.88563 44.7758 9.74086 44.7939 9.50561 44.812H9.12559C9.01702 44.7034 8.96273 44.6039 8.96273 44.5134Z" fill="black"/>
<path d="M24.3764 50.9219C24.3892 50.8451 24.4084 50.7427 24.4339 50.6148C24.4595 50.4869 24.5363 50.2438 24.6642 49.8856C24.7922 49.5273 24.9201 49.2267 25.0481 48.9836C25.176 48.7405 25.3871 48.5038 25.6813 48.2735C25.9756 48.0432 26.2699 47.9345 26.5641 47.9473C27.0247 47.9473 27.4085 48.0624 27.7156 48.2927C28.0226 48.523 28.2145 48.7405 28.2913 48.9452C28.3681 49.1499 28.4064 49.2842 28.4064 49.3482C28.4064 49.3738 28.4128 49.3866 28.4256 49.3866L28.6367 49.1755C29.4172 48.3567 30.3063 47.9473 31.3043 47.9473C31.9951 47.9473 32.5517 48.12 32.9739 48.4654C33.3961 48.8109 33.6135 49.3162 33.6263 49.9815C33.6391 50.6468 33.3961 51.6511 32.8971 52.9945C32.3981 54.3378 32.155 55.1502 32.1678 55.4317C32.1678 55.7643 32.2766 55.9307 32.4941 55.9307C32.5708 55.9307 32.6284 55.9243 32.6668 55.9115C33.0378 55.8475 33.3705 55.6044 33.6647 55.1822C33.959 54.76 34.1829 54.2483 34.3364 53.647C34.362 53.5446 34.4899 53.4934 34.7202 53.4934C34.9761 53.4934 35.104 53.5446 35.104 53.647C35.104 53.6597 35.0784 53.7557 35.0273 53.9348C34.9249 54.3058 34.7842 54.6705 34.6051 55.0287C34.426 55.3869 34.1317 55.7451 33.7223 56.1034C33.3129 56.4616 32.8715 56.6343 32.3981 56.6215C31.7968 56.6215 31.3618 56.4488 31.0932 56.1034C30.8245 55.7579 30.6901 55.3997 30.6901 55.0287C30.6901 54.7856 30.9204 54.018 31.381 52.7258C31.8416 51.4336 32.0783 50.4613 32.0911 49.8088C32.0911 49.054 31.8096 48.6765 31.2467 48.6765H31.1507C30.0505 48.6765 29.1229 49.3226 28.3681 50.6148L28.2337 50.8451L27.6004 53.4167C27.1782 55.0927 26.9351 55.9946 26.8712 56.1226C26.7049 56.468 26.4298 56.6407 26.046 56.6407C25.8797 56.6407 25.7453 56.6023 25.643 56.5256C25.5406 56.4488 25.4702 56.372 25.4319 56.2953C25.3935 56.2185 25.3807 56.1545 25.3935 56.1034C25.3935 55.9371 25.6366 54.8944 26.1227 52.9753C26.6089 51.0562 26.8648 50.0135 26.8904 49.8472C26.9032 49.7832 26.9096 49.6361 26.9096 49.4058C26.9096 48.9068 26.756 48.6573 26.449 48.6573C25.9628 48.6573 25.5598 49.297 25.24 50.5764C25.1632 50.8323 25.1248 50.9666 25.1248 50.9794C25.0992 51.0562 24.9777 51.0946 24.7602 51.0946H24.4915C24.4148 51.0178 24.3764 50.9602 24.3764 50.9219Z" fill="black"/>
<path d="M38.3407 32.4886C38.3588 32.3619 38.4131 32.2534 38.5036 32.1629C38.594 32.0724 38.7207 32.0181 38.8836 32C39.0645 32 39.2184 32.0905 39.345 32.2715C39.3993 32.3981 40.2498 34.6239 41.8966 38.9489C43.5433 43.2738 44.3757 45.4815 44.3938 45.572C44.4119 45.6625 43.5885 47.8702 41.9237 52.1951C40.2589 56.5201 39.3993 58.7459 39.345 58.8726C39.2184 59.0535 39.0645 59.144 38.8836 59.144C38.7388 59.144 38.6212 59.0988 38.5307 59.0083C38.4402 58.9178 38.3769 58.8002 38.3407 58.6554C38.3407 58.5649 39.155 56.3663 40.7837 52.0594C42.4304 47.7707 43.2538 45.6082 43.2538 45.572C43.2538 45.5358 42.4304 43.3733 40.7837 39.0846C39.155 34.7777 38.3407 32.5791 38.3407 32.4886Z" fill="black"/>
</g>
<g clip-path="url(#clip1_1_142)">
<path d="M18.7745 157.13H18.7202C18.503 157.13 18.3402 157.004 18.2316 156.75V143.558L18.2587 130.366C18.4397 130.131 18.6116 130.014 18.7745 130.014C19.0097 130.014 19.1907 130.149 19.3174 130.421V156.75C19.1726 157.004 19.0097 157.13 18.8288 157.13H18.7745Z" fill="black"/>
<path d="M25.1533 134.479C26.1667 133.013 27.551 132.28 29.3063 132.28C30.175 132.28 31.0436 132.515 31.9122 132.986C32.7808 133.456 33.4865 134.289 34.0294 135.483C34.699 136.985 35.0337 139.048 35.0337 141.672C35.0337 144.477 34.6447 146.621 33.8665 148.105C33.5046 148.865 33.007 149.471 32.3736 149.924C31.7403 150.376 31.1883 150.657 30.7178 150.765C30.2473 150.874 29.7859 150.937 29.3335 150.955C28.863 150.955 28.3925 150.901 27.922 150.792C27.4515 150.684 26.8996 150.394 26.2662 149.924C25.6329 149.453 25.1352 148.847 24.7733 148.105C23.9952 146.621 23.6061 144.477 23.6061 141.672C23.6061 138.523 24.1218 136.125 25.1533 134.479ZM31.2607 134.153C30.7178 133.574 30.0754 133.284 29.3335 133.284C28.5735 133.284 27.922 133.574 27.3791 134.153C26.9267 134.624 26.6281 135.275 26.4834 136.107C26.3386 136.94 26.2662 138.677 26.2662 141.319C26.2662 144.178 26.3386 146.06 26.4834 146.965C26.6281 147.87 26.9539 148.585 27.4606 149.109C27.9672 149.652 28.5916 149.924 29.3335 149.924C30.0573 149.924 30.6726 149.652 31.1793 149.109C31.7041 148.566 32.0298 147.806 32.1565 146.829C32.2831 145.852 32.3555 144.015 32.3736 141.319C32.3736 138.695 32.3012 136.967 32.1565 136.135C32.0117 135.302 31.7131 134.642 31.2607 134.153Z" fill="black"/>
<path d="M37.6124 130.489C37.6305 130.362 37.6848 130.253 37.7753 130.163C37.8658 130.072 37.9924 130.018 38.1553 130C38.3363 130 38.4901 130.09 38.6168 130.271C38.671 130.398 39.5216 132.624 41.1683 136.949C42.815 141.274 43.6474 143.482 43.6655 143.572C43.6836 143.662 42.8603 145.87 41.1954 150.195C39.5306 154.52 38.671 156.746 38.6168 156.873C38.4901 157.054 38.3363 157.144 38.1553 157.144C38.0105 157.144 37.8929 157.099 37.8024 157.008C37.712 156.918 37.6486 156.8 37.6124 156.655C37.6124 156.565 38.4267 154.366 40.0554 150.059C41.7021 145.771 42.5255 143.608 42.5255 143.572C42.5255 143.536 41.7021 141.373 40.0554 137.085C38.4267 132.778 37.6124 130.579 37.6124 130.489Z" fill="black"/>
</g>
<path d="M330.543 59.1304H330.489C330.271 59.1304 330.109 59.0038 330 58.7504V45.5584L330.027 32.3664C330.208 32.1312 330.38 32.0136 330.543 32.0136C330.778 32.0136 330.959 32.1493 331.086 32.4207V58.7504C330.941 59.0038 330.778 59.1304 330.597 59.1304H330.543Z" fill="black"/>
<path d="M335.727 44.5134C335.854 43.7534 336.343 42.8757 337.193 41.8804C338.044 40.8852 339.093 40.3785 340.342 40.3604C340.975 40.3604 341.554 40.5232 342.079 40.849C342.604 41.1747 342.993 41.5819 343.246 42.0705C344.006 40.9304 344.92 40.3604 345.988 40.3604C346.657 40.3604 347.236 40.5594 347.725 40.9576C348.214 41.3557 348.467 41.8895 348.485 42.559C348.485 43.0838 348.358 43.5091 348.105 43.8348C347.852 44.1605 347.607 44.3596 347.372 44.432C347.137 44.5044 346.929 44.5406 346.748 44.5406C346.404 44.5406 346.124 44.441 345.906 44.242C345.689 44.0429 345.581 43.7805 345.581 43.4548C345.581 42.6224 346.033 42.0524 346.938 41.7447C346.739 41.5095 346.377 41.3919 345.852 41.3919C345.617 41.3919 345.445 41.41 345.336 41.4461C344.649 41.7357 344.142 42.3328 343.816 43.2376C342.731 47.2369 342.188 49.5712 342.188 50.2408C342.188 50.7475 342.332 51.1094 342.622 51.3266C342.911 51.5437 343.228 51.6523 343.572 51.6523C344.242 51.6523 344.902 51.3537 345.554 50.7565C346.205 50.1594 346.648 49.4265 346.884 48.5579C346.938 48.3769 346.992 48.2774 347.046 48.2593C347.101 48.2412 347.245 48.2231 347.481 48.205H347.589C347.861 48.205 347.996 48.2774 347.996 48.4222C347.996 48.4402 347.978 48.5398 347.942 48.7207C347.653 49.7522 347.092 50.6661 346.259 51.4623C345.427 52.2585 344.459 52.6566 343.355 52.6566C342.088 52.6566 341.129 52.0866 340.478 50.9465C339.736 52.0685 338.885 52.6295 337.926 52.6295H337.763C336.876 52.6295 336.243 52.3942 335.863 51.9237C335.483 51.4532 335.284 50.9556 335.266 50.4308C335.266 49.8517 335.438 49.3812 335.782 49.0193C336.125 48.6574 336.533 48.4764 337.003 48.4764C337.781 48.4764 338.17 48.8565 338.17 49.6165C338.17 49.9784 338.062 50.2951 337.845 50.5665C337.627 50.838 337.419 51.0189 337.22 51.1094C337.021 51.1999 336.904 51.2451 336.867 51.2451L336.786 51.2723C336.786 51.2904 336.84 51.3266 336.949 51.3808C337.057 51.4351 337.202 51.4985 337.383 51.5709C337.564 51.6432 337.736 51.6704 337.899 51.6523C338.55 51.6523 339.111 51.2451 339.582 50.4308C339.745 50.1413 339.953 49.526 340.206 48.585C340.459 47.644 340.713 46.6668 340.966 45.6535C341.22 44.6401 341.364 44.0429 341.4 43.862C341.491 43.3734 341.536 43.0205 341.536 42.8033C341.536 42.2967 341.4 41.9347 341.129 41.7176C340.858 41.5004 340.55 41.3919 340.206 41.3919C339.482 41.3919 338.804 41.6814 338.17 42.2605C337.537 42.8395 337.094 43.5815 336.84 44.4863C336.804 44.6491 336.759 44.7396 336.705 44.7577C336.65 44.7758 336.506 44.7939 336.27 44.812H335.89C335.782 44.7034 335.727 44.6039 335.727 44.5134Z" fill="black"/>
<path d="M351.141 50.9219C351.154 50.8451 351.173 50.7427 351.199 50.6148C351.224 50.4869 351.301 50.2438 351.429 49.8856C351.557 49.5273 351.685 49.2267 351.813 48.9836C351.941 48.7405 352.152 48.5038 352.446 48.2735C352.74 48.0432 353.034 47.9345 353.329 47.9473C353.789 47.9473 354.173 48.0624 354.48 48.2927C354.787 48.523 354.979 48.7405 355.056 48.9452C355.133 49.1499 355.171 49.2842 355.171 49.3482C355.171 49.3738 355.177 49.3866 355.19 49.3866L355.401 49.1755C356.182 48.3567 357.071 47.9473 358.069 47.9473C358.76 47.9473 359.316 48.12 359.738 48.4654C360.161 48.8109 360.378 49.3162 360.391 49.9815C360.404 50.6468 360.161 51.6511 359.662 52.9945C359.163 54.3378 358.92 55.1502 358.932 55.4317C358.932 55.7643 359.041 55.9307 359.259 55.9307C359.335 55.9307 359.393 55.9243 359.431 55.9115C359.802 55.8475 360.135 55.6044 360.429 55.1822C360.724 54.76 360.947 54.2483 361.101 53.647C361.127 53.5446 361.255 53.4934 361.485 53.4934C361.741 53.4934 361.869 53.5446 361.869 53.647C361.869 53.6597 361.843 53.7557 361.792 53.9348C361.69 54.3058 361.549 54.6705 361.37 55.0287C361.191 55.3869 360.896 55.7451 360.487 56.1034C360.078 56.4616 359.636 56.6343 359.163 56.6215C358.561 56.6215 358.126 56.4488 357.858 56.1034C357.589 55.7579 357.455 55.3997 357.455 55.0287C357.455 54.7856 357.685 54.018 358.146 52.7258C358.606 51.4336 358.843 50.4613 358.856 49.8088C358.856 49.054 358.574 48.6765 358.011 48.6765H357.915C356.815 48.6765 355.888 49.3226 355.133 50.6148L354.998 50.8451L354.365 53.4167C353.943 55.0927 353.7 55.9946 353.636 56.1226C353.469 56.468 353.194 56.6407 352.811 56.6407C352.644 56.6407 352.51 56.6023 352.408 56.5256C352.305 56.4488 352.235 56.372 352.196 56.2953C352.158 56.2185 352.145 56.1545 352.158 56.1034C352.158 55.9371 352.401 54.8944 352.887 52.9753C353.374 51.0562 353.629 50.0135 353.655 49.8472C353.668 49.7832 353.674 49.6361 353.674 49.4058C353.674 48.9068 353.521 48.6573 353.214 48.6573C352.727 48.6573 352.324 49.297 352.005 50.5764C351.928 50.8323 351.889 50.9666 351.889 50.9794C351.864 51.0562 351.742 51.0946 351.525 51.0946H351.256C351.179 51.0178 351.141 50.9602 351.141 50.9219Z" fill="black"/>
<path d="M365.105 32.4886C365.123 32.3619 365.178 32.2534 365.268 32.1629C365.359 32.0724 365.485 32.0181 365.648 32C365.829 32 365.983 32.0905 366.11 32.2715C366.164 32.3981 367.014 34.6239 368.661 38.9489C370.308 43.2738 371.14 45.4815 371.158 45.572C371.177 45.6625 370.353 47.8702 368.688 52.1951C367.024 56.5201 366.164 58.7459 366.11 58.8726C365.983 59.0535 365.829 59.144 365.648 59.144C365.503 59.144 365.386 59.0988 365.295 59.0083C365.205 58.9178 365.142 58.8002 365.105 58.6554C365.105 58.5649 365.92 56.3663 367.548 52.0594C369.195 47.7707 370.018 45.6082 370.018 45.572C370.018 45.5358 369.195 43.3733 367.548 39.0846C365.92 34.7777 365.105 32.5791 365.105 32.4886Z" fill="black"/>
<path d="M330.543 157.13H330.489C330.271 157.13 330.109 157.004 330 156.75V143.558L330.027 130.366C330.208 130.131 330.38 130.014 330.543 130.014C330.778 130.014 330.959 130.149 331.086 130.421V156.75C330.941 157.004 330.778 157.13 330.597 157.13H330.543Z" fill="black"/>
<path d="M337.519 154.755C337.555 154.755 337.609 154.773 337.682 154.81C337.754 154.846 337.854 154.873 337.98 154.891C338.107 154.909 338.216 154.918 338.306 154.918C338.541 154.918 338.758 154.801 338.958 154.565C339.157 154.33 339.301 154.068 339.392 153.778C339.573 153.29 339.88 151.905 340.315 149.625C340.749 147.345 341.165 145.174 341.563 143.111C341.961 141.048 342.161 140.007 342.161 139.989V139.908H340.885C340.034 139.908 339.582 139.889 339.528 139.853C339.455 139.799 339.419 139.709 339.419 139.582L339.609 138.822C339.645 138.731 339.718 138.686 339.826 138.686C339.935 138.686 340.36 138.677 341.102 138.659C341.971 138.659 342.405 138.65 342.405 138.632C342.405 138.596 342.486 138.143 342.649 137.275C342.812 136.406 342.921 135.881 342.975 135.7C343.644 132.714 344.965 131.222 346.938 131.222C347.607 131.258 348.159 131.457 348.594 131.819C349.028 132.181 349.245 132.66 349.245 133.257C349.245 133.909 349.055 134.379 348.675 134.669C348.295 134.958 347.915 135.112 347.535 135.13C346.739 135.13 346.341 134.75 346.341 133.99C346.341 133.646 346.44 133.348 346.639 133.094C346.838 132.841 347.056 132.651 347.291 132.524L347.535 132.389C347.246 132.28 346.974 132.226 346.721 132.226C346.504 132.226 346.295 132.316 346.096 132.497C345.897 132.678 345.762 132.932 345.689 133.257C345.563 133.782 345.418 134.488 345.255 135.375C345.092 136.261 344.947 137.012 344.821 137.627C344.694 138.243 344.631 138.568 344.631 138.605C344.631 138.641 345.128 138.659 346.124 138.659C346.938 138.659 347.408 138.668 347.535 138.686C347.662 138.704 347.761 138.758 347.834 138.849C347.852 138.921 347.834 139.075 347.779 139.31C347.725 139.546 347.68 139.69 347.644 139.745C347.607 139.835 347.526 139.88 347.399 139.88C347.273 139.88 346.784 139.889 345.934 139.908H344.413L343.789 143.219C342.921 147.707 342.314 150.512 341.971 151.634C341.482 153.172 340.849 154.312 340.07 155.054C339.401 155.633 338.74 155.923 338.089 155.923C337.51 155.923 336.985 155.751 336.515 155.407C336.044 155.063 335.809 154.574 335.809 153.941C335.809 153.271 335.999 152.783 336.379 152.475C336.759 152.168 337.139 152.014 337.519 152.014C338.315 152.014 338.713 152.394 338.713 153.154C338.713 153.498 338.614 153.796 338.415 154.05C338.216 154.303 337.998 154.493 337.763 154.62L337.519 154.755Z" fill="black"/>
<path d="M351.797 143.572C351.797 142.323 351.887 141.138 352.068 140.016C352.249 138.894 352.457 137.926 352.692 137.112C352.928 136.297 353.262 135.501 353.697 134.723C354.131 133.945 354.475 133.339 354.728 132.904C354.982 132.47 355.362 132 355.868 131.493C356.375 130.986 356.674 130.679 356.764 130.57C356.854 130.461 357.081 130.271 357.443 130H357.795H357.904C358.157 130 358.284 130.081 358.284 130.244C358.284 130.299 358.13 130.489 357.823 130.814C357.515 131.14 357.144 131.62 356.71 132.253C356.275 132.886 355.832 133.664 355.38 134.587C354.927 135.51 354.547 136.759 354.24 138.333C353.932 139.908 353.778 141.654 353.778 143.572C353.778 145.49 353.932 147.227 354.24 148.784C354.547 150.34 354.918 151.598 355.352 152.557C355.787 153.516 356.23 154.294 356.683 154.891C357.135 155.488 357.515 155.968 357.823 156.33C358.13 156.692 358.284 156.882 358.284 156.9C358.284 157.063 358.148 157.144 357.877 157.144H357.795H357.443L356.683 156.493C354.982 154.954 353.742 153.036 352.964 150.738C352.186 148.44 351.797 146.051 351.797 143.572Z" fill="black"/>
<path d="M361.216 142.513C361.342 141.753 361.831 140.876 362.681 139.88C363.532 138.885 364.581 138.378 365.83 138.36C366.463 138.36 367.043 138.523 367.567 138.849C368.092 139.175 368.481 139.582 368.734 140.07C369.495 138.93 370.408 138.36 371.476 138.36C372.146 138.36 372.725 138.559 373.213 138.958C373.702 139.356 373.955 139.889 373.973 140.559C373.973 141.084 373.847 141.509 373.593 141.835C373.34 142.161 373.096 142.36 372.86 142.432C372.625 142.504 372.417 142.541 372.236 142.541C371.892 142.541 371.612 142.441 371.395 142.242C371.177 142.043 371.069 141.781 371.069 141.455C371.069 140.622 371.521 140.052 372.426 139.745C372.227 139.509 371.865 139.392 371.34 139.392C371.105 139.392 370.933 139.41 370.825 139.446C370.137 139.736 369.63 140.333 369.305 141.238C368.219 145.237 367.676 147.571 367.676 148.241C367.676 148.747 367.821 149.109 368.11 149.327C368.4 149.544 368.716 149.652 369.06 149.652C369.73 149.652 370.39 149.354 371.042 148.757C371.693 148.159 372.137 147.426 372.372 146.558C372.426 146.377 372.48 146.277 372.535 146.259C372.589 146.241 372.734 146.223 372.969 146.205H373.078C373.349 146.205 373.485 146.277 373.485 146.422C373.485 146.44 373.467 146.54 373.43 146.721C373.141 147.752 372.58 148.666 371.747 149.462C370.915 150.259 369.947 150.657 368.843 150.657C367.576 150.657 366.617 150.087 365.966 148.947C365.224 150.068 364.373 150.629 363.414 150.629H363.251C362.365 150.629 361.731 150.394 361.351 149.924C360.971 149.453 360.772 148.956 360.754 148.431C360.754 147.852 360.926 147.381 361.27 147.019C361.614 146.657 362.021 146.476 362.491 146.476C363.269 146.476 363.659 146.856 363.659 147.616C363.659 147.978 363.55 148.295 363.333 148.567C363.116 148.838 362.908 149.019 362.709 149.109C362.509 149.2 362.392 149.245 362.356 149.245L362.274 149.272C362.274 149.29 362.329 149.327 362.437 149.381C362.546 149.435 362.69 149.498 362.871 149.571C363.052 149.643 363.224 149.67 363.387 149.652C364.039 149.652 364.6 149.245 365.07 148.431C365.233 148.141 365.441 147.526 365.694 146.585C365.948 145.644 366.201 144.667 366.454 143.653C366.708 142.64 366.853 142.043 366.889 141.862C366.979 141.373 367.024 141.02 367.024 140.803C367.024 140.297 366.889 139.935 366.617 139.718C366.346 139.5 366.038 139.392 365.694 139.392C364.971 139.392 364.292 139.681 363.659 140.26C363.025 140.84 362.582 141.581 362.329 142.486C362.292 142.649 362.247 142.74 362.193 142.758C362.138 142.776 361.994 142.794 361.758 142.812H361.378C361.27 142.703 361.216 142.604 361.216 142.513Z" fill="black"/>
<path d="M376.629 148.922C376.642 148.845 376.661 148.743 376.687 148.615C376.712 148.487 376.789 148.244 376.917 147.886C377.045 147.527 377.173 147.227 377.301 146.984C377.429 146.741 377.64 146.504 377.934 146.274C378.228 146.043 378.523 145.934 378.817 145.947C379.278 145.947 379.661 146.062 379.968 146.293C380.275 146.523 380.467 146.741 380.544 146.945C380.621 147.15 380.659 147.284 380.659 147.348C380.659 147.374 380.666 147.387 380.678 147.387L380.89 147.175C381.67 146.357 382.559 145.947 383.557 145.947C384.248 145.947 384.804 146.12 385.227 146.465C385.649 146.811 385.866 147.316 385.879 147.982C385.892 148.647 385.649 149.651 385.15 150.994C384.651 152.338 384.408 153.15 384.421 153.432C384.421 153.764 384.529 153.931 384.747 153.931C384.824 153.931 384.881 153.924 384.92 153.911C385.291 153.847 385.623 153.604 385.918 153.182C386.212 152.76 386.436 152.248 386.589 151.647C386.615 151.545 386.743 151.493 386.973 151.493C387.229 151.493 387.357 151.545 387.357 151.647C387.357 151.66 387.331 151.756 387.28 151.935C387.178 152.306 387.037 152.67 386.858 153.029C386.679 153.387 386.385 153.745 385.975 154.103C385.566 154.462 385.124 154.634 384.651 154.622C384.05 154.622 383.615 154.449 383.346 154.103C383.077 153.758 382.943 153.4 382.943 153.029C382.943 152.786 383.173 152.018 383.634 150.726C384.094 149.434 384.331 148.461 384.344 147.809C384.344 147.054 384.062 146.677 383.5 146.677H383.404C382.303 146.677 381.376 147.323 380.621 148.615L380.487 148.845L379.853 151.417C379.431 153.093 379.188 153.995 379.124 154.123C378.958 154.468 378.683 154.641 378.299 154.641C378.132 154.641 377.998 154.602 377.896 154.526C377.793 154.449 377.723 154.372 377.685 154.295C377.646 154.219 377.634 154.155 377.646 154.103C377.646 153.937 377.889 152.894 378.376 150.975C378.862 149.056 379.118 148.013 379.143 147.847C379.156 147.783 379.162 147.636 379.162 147.406C379.162 146.907 379.009 146.657 378.702 146.657C378.216 146.657 377.813 147.297 377.493 148.576C377.416 148.832 377.378 148.967 377.378 148.979C377.352 149.056 377.231 149.095 377.013 149.095H376.744C376.668 149.018 376.629 148.96 376.629 148.922Z" fill="black"/>
<path d="M390.729 130.027L390.838 130C390.928 130 391.019 130 391.109 130H391.435L392.195 130.651C393.896 132.19 395.136 134.108 395.914 136.406C396.692 138.704 397.081 141.093 397.081 143.572C397.081 144.803 396.991 145.988 396.81 147.128C396.629 148.268 396.42 149.236 396.185 150.032C395.95 150.829 395.615 151.625 395.181 152.421C394.747 153.217 394.403 153.823 394.149 154.24C393.896 154.656 393.525 155.117 393.037 155.624C392.548 156.131 392.258 156.429 392.168 156.52C392.077 156.61 391.869 156.782 391.544 157.035C391.489 157.09 391.453 157.126 391.435 157.144H391.109C390.965 157.144 390.865 157.144 390.811 157.144C390.756 157.144 390.711 157.117 390.675 157.063C390.639 157.008 390.612 156.927 390.594 156.818C390.612 156.8 390.711 156.683 390.892 156.465C393.697 153.552 395.099 149.254 395.099 143.572C395.099 137.89 393.697 133.592 390.892 130.679C390.711 130.461 390.612 130.344 390.594 130.326C390.594 130.181 390.639 130.081 390.729 130.027Z" fill="black"/>
<path d="M401.153 130.489C401.171 130.362 401.225 130.253 401.315 130.163C401.406 130.072 401.533 130.018 401.695 130C401.876 130 402.03 130.09 402.157 130.271C402.211 130.398 403.062 132.624 404.708 136.949C406.355 141.274 407.188 143.482 407.206 143.572C407.224 143.662 406.4 145.87 404.736 150.195C403.071 154.52 402.211 156.746 402.157 156.873C402.03 157.054 401.876 157.144 401.695 157.144C401.551 157.144 401.433 157.099 401.343 157.008C401.252 156.918 401.189 156.8 401.153 156.655C401.153 156.565 401.967 154.366 403.596 150.059C405.242 145.771 406.066 143.608 406.066 143.572C406.066 143.536 405.242 141.373 403.596 137.085C401.967 132.778 401.153 130.579 401.153 130.489Z" fill="black"/>
<line x1="101" y1="44.5" x2="57" y2="44.5" stroke="black" stroke-width="3"/>
<line x1="101" y1="142.5" x2="57" y2="142.5" stroke="black" stroke-width="3"/>
<line x1="320" y1="44.5" x2="276" y2="44.5" stroke="black" stroke-width="3"/>
<line x1="320" y1="142.5" x2="276" y2="142.5" stroke="black" stroke-width="3"/>
<defs>
<clipPath id="clip0_1_142">
<rect width="47.412" height="27.144" fill="white" transform="translate(0 32)"/>
</clipPath>
<clipPath id="clip1_1_142">
<rect width="31.68" height="27.144" fill="white" transform="translate(15 130)"/>
</clipPath>
</defs>
</svg>
